HIERARCHY
ROOT SpineBase
{
  OFFSET 0.000000 0.000000 0.000000
  CHANNELS 6 Xposition Yposition Zposition Zrotation Xrotation Yrotation
  JOINT SpineMid
  {
    OFFSET 0.000000 31.868283 0.000000
    CHANNELS 3 Zrotation Xrotation Yrotation
    JOINT SpineShoulder
    {
      OFFSET 0.094108 23.726095 -0.937493
      CHANNELS 3 Zrotation Xrotation Yrotation
      JOINT Neck
      {
        OFFSET 0.065380 7.860209 -0.666704
        CHANNELS 3 Zrotation Xrotation Yrotation
        JOINT Head
        {
          OFFSET -3.788129 13.226632 1.810828
          CHANNELS 3 Zrotation Xrotation Yrotation
          End Site
          {
            OFFSET 0 0 0
          }
        }
      }
      JOINT ShoulderLeft
      {
        OFFSET -16.137690 -4.494712 8.580645
        CHANNELS 3 Zrotation Xrotation Yrotation
        JOINT ElbowLeft
        {
          OFFSET -3.341419 -27.440438 4.324718
          CHANNELS 3 Zrotation Xrotation Yrotation
          JOINT WristLeft
          {
            OFFSET 0.366538 -24.212230 0.603869
            CHANNELS 3 Zrotation Xrotation Yrotation
            JOINT HandLeft
            {
              OFFSET -2.225092 -4.146441 -0.349678
              CHANNELS 3 Zrotation Xrotation Yrotation
              JOINT HandTipLeft
              {
                OFFSET -1.405768 -9.966459 -2.756456
                CHANNELS 3 Zrotation Xrotation Yrotation
                End Site
                {
                  OFFSET 0 0 0
                }
              }
              JOINT ThumbLeft
              {
                OFFSET 3.864469 2.886968 -2.647827
                CHANNELS 3 Zrotation Xrotation Yrotation
                End Site
                {
                  OFFSET 0 0 0
                }
              }
            }
          }
        }
      }
      JOINT ShoulderRight
      {
        OFFSET 12.334373 -3.818724 -8.644131
        CHANNELS 3 Zrotation Xrotation Yrotation
        JOINT ElbowRight
        {
          OFFSET 8.704437 -26.910064 -4.259591
          CHANNELS 3 Zrotation Xrotation Yrotation
          JOINT WristRight
          {
            OFFSET 2.776041 -21.842864 -4.839723
            CHANNELS 3 Zrotation Xrotation Yrotation
            JOINT HandRight
            {
              OFFSET 0.912828 -6.805936 2.032144
              CHANNELS 3 Zrotation Xrotation Yrotation
              JOINT HandTipRight
              {
                OFFSET 0.565613 -8.016761 0.142546
                CHANNELS 3 Zrotation Xrotation Yrotation
                End Site
                {
                  OFFSET 0 0 0
                }
              }
              JOINT ThumbRight
              {
                OFFSET -3.415941 -0.140633 -1.008634
                CHANNELS 3 Zrotation Xrotation Yrotation
                End Site
                {
                  OFFSET 0 0 0
                }
              }
            }
          }
        }
      }
    }
  }
  JOINT HipLeft
  {
    OFFSET -6.412645 0.444460 -0.932948
    CHANNELS 3 Zrotation Xrotation Yrotation
    JOINT KneeLeft
    {
      OFFSET -5.680684 -34.347832 7.522353
      CHANNELS 3 Zrotation Xrotation Yrotation
      JOINT AnkleLeft
      {
        OFFSET -26.989517 -17.869022 7.251843
        CHANNELS 3 Zrotation Xrotation Yrotation
        JOINT FootLeft
        {
          OFFSET 11.481820 -6.752749 -3.092767
          CHANNELS 3 Zrotation Xrotation Yrotation
          End Site
          {
            OFFSET 0 0 0
          }
        }
      }
    }
  }
  JOINT HipRight
  {
    OFFSET 6.851018 1.476398 -6.130144
    CHANNELS 3 Zrotation Xrotation Yrotation
    JOINT KneeRight
    {
      OFFSET 7.212034 -34.863261 -1.306029
      CHANNELS 3 Zrotation Xrotation Yrotation
      JOINT AnkleRight
      {
        OFFSET 9.807723 -34.816462 5.502103
        CHANNELS 3 Zrotation Xrotation Yrotation
        JOINT FootRight
        {
          OFFSET 0.778216 -8.168082 -5.864401
          CHANNELS 3 Zrotation Xrotation Yrotation
          End Site
          {
            OFFSET 0 0 0
          }
        }
      }
    }
  }
}
MOTION
Frames: 10
Frame Time: 0.033333
-17.796885 80.922845 339.594770 2.751279 -8.035439 31.204979 -0.402210 -0.143651 -30.854951 -0.061334 -0.373455 0.157070 11.720049 -13.723695 -7.879614 0.000000 0.000000 0.000000 0.374556 14.079996 -0.872022 -12.012107 39.477775 3.603370 16.001781 -13.748079 -10.951384 -21.903976 0.446325 10.281840 0.000000 0.000000 0.000000 0.000000 0.000000 0.000000 -7.802241 10.293567 2.178384 -46.696680 -2.072013 9.715605 -15.503657 3.458039 -37.067564 12.754038 18.319042 29.507426 0.000000 0.000000 0.000000 0.000000 0.000000 0.000000 16.886444 6.801363 -31.224944 45.912270 7.011504 15.336249 -121.853783 2.123562 33.825937 0.000000 0.000000 0.000000 2.813471 8.556816 -31.164460 -0.168410 1.306061 0.529054 -23.092486 18.591163 18.921436 0.000000 0.000000 0.000000
-17.213495 80.776968 339.399103 3.111777 -8.942067 31.847570 -0.221481 0.222883 -31.436928 0.007434 -0.224625 0.170735 11.432013 -13.752617 -8.043794 0.000000 0.000000 0.000000 0.296859 15.523585 -1.068366 -14.034467 40.096615 4.180748 18.298976 -18.672911 -7.593107 -25.005882 3.622017 9.522899 0.000000 0.000000 0.000000 0.000000 0.000000 0.000000 -11.550528 10.283903 3.217350 -44.403218 -3.752978 8.481085 -11.907244 4.880870 -34.442503 8.865433 21.785474 32.073374 0.000000 0.000000 0.000000 0.000000 0.000000 0.000000 16.744181 7.561921 -32.060963 45.798814 7.000751 15.242487 -121.226322 2.138135 33.068355 0.000000 0.000000 0.000000 2.077687 9.235022 -31.772015 0.341635 2.119643 0.646176 -25.940999 20.409202 21.701224 0.000000 0.000000 0.000000
-16.525120 80.654179 338.915937 3.610265 -9.502291 32.263491 -0.046400 0.520618 -31.785151 0.086587 -0.091597 0.189866 10.637013 -13.939419 -8.098963 0.000000 0.000000 0.000000 -0.077666 16.190910 -1.175186 -14.311230 39.959174 4.174774 18.666496 -19.079736 -7.348490 -18.538151 3.079007 9.385194 0.000000 0.000000 0.000000 0.000000 0.000000 0.000000 -14.148804 9.731679 3.666992 -41.769758 -4.673274 7.751210 -10.098938 7.159764 -31.311341 5.242489 21.786061 32.942885 0.000000 0.000000 0.000000 0.000000 0.000000 0.000000 15.820026 8.665540 -32.735410 46.424813 7.051423 16.273799 -120.616389 2.946039 33.086420 0.000000 0.000000 0.000000 2.019217 9.958499 -32.139269 0.100387 2.100945 0.607526 -27.181292 20.954524 23.051606 0.000000 0.000000 0.000000
-15.879370 80.549913 338.319053 4.080077 -9.823526 32.843910 0.080731 0.676638 -32.305490 0.100571 -0.094114 0.212611 9.457472 -14.377089 -8.184630 0.000000 0.000000 0.000000 -0.488733 16.546445 -1.222234 -15.395605 40.236683 4.495906 22.752464 -20.051731 -4.911736 -13.969961 3.443141 8.480587 0.000000 0.000000 0.000000 0.000000 0.000000 0.000000 -16.693078 9.376583 4.191872 -37.692330 -5.521802 6.601636 -9.857686 9.847472 -27.703815 -2.358555 21.878034 35.537906 0.000000 0.000000 0.000000 0.000000 0.000000 0.000000 14.842924 10.901006 -34.013907 47.922038 6.747834 19.889642 -120.335479 4.963456 33.510616 0.000000 0.000000 0.000000 0.090145 9.772637 -32.625631 0.915848 3.817698 0.883781 -33.200022 24.223454 28.893255 0.000000 0.000000 0.000000
-15.359312 80.492931 337.725262 4.477114 -9.907122 33.408172 0.023663 0.488105 -32.812068 0.104744 -0.125494 0.235223 8.134813 -14.238278 -8.215642 0.000000 0.000000 0.000000 -1.121720 16.405195 -1.148270 -15.657828 40.824095 4.746671 26.319403 -18.872150 -3.905653 -16.294267 -0.952791 8.660434 0.000000 0.000000 0.000000 0.000000 0.000000 0.000000 -17.270977 9.567060 4.263489 -36.406971 -6.890656 5.534122 -7.538227 12.012578 -24.421344 -11.843555 13.235974 31.204207 0.000000 0.000000 0.000000 0.000000 0.000000 0.000000 13.966174 12.238080 -34.951306 48.849540 6.556062 22.345565 -119.821631 6.505956 34.164082 0.000000 0.000000 0.000000 -1.057920 9.439134 -33.168644 1.150481 4.886524 1.056546 -33.087218 23.916153 28.915663 0.000000 0.000000 0.000000
-15.018156 80.496186 337.209367 4.728791 -9.756294 33.756672 -0.088696 0.148755 -33.125277 0.094142 -0.122711 0.251436 6.664987 -14.221796 -8.197980 0.000000 0.000000 0.000000 -1.837922 15.920029 -1.020569 -15.523629 41.386816 4.972556 31.000359 -18.390978 -1.703484 -20.537681 -1.196546 7.772080 0.000000 0.000000 0.000000 0.000000 0.000000 0.000000 -19.420786 9.948996 5.050541 -32.786644 -7.881834 4.019377 -8.065880 14.852809 -21.376002 -14.240255 4.186340 23.684963 0.000000 0.000000 0.000000 0.000000 0.000000 0.000000 13.195091 12.785134 -35.420707 49.390397 6.486185 23.728771 -118.961972 7.721509 34.756304 0.000000 0.000000 0.000000 -2.034051 8.873092 -33.539933 1.332357 5.783050 1.211383 -28.862269 21.411500 24.986835 0.000000 0.000000 0.000000
-14.852772 80.477486 336.591805 4.694186 -9.603266 34.056759 0.010601 -0.081387 -33.440035 0.082984 -0.022536 0.254567 5.582229 -14.738352 -8.194465 0.000000 0.000000 0.000000 -2.562534 15.077440 -0.874913 -18.355741 42.271738 6.316441 33.711529 -17.046539 -1.348749 -15.790118 -3.923970 8.640561 0.000000 0.000000 0.000000 0.000000 0.000000 0.000000 -22.449454 9.145241 5.722471 -27.406956 -8.312807 3.029620 -11.786052 20.385641 -16.856520 -12.405170 -2.959041 17.205014 0.000000 0.000000 0.000000 0.000000 0.000000 0.000000 12.759825 12.396787 -35.573701 49.469845 6.591759 23.989609 -118.705568 8.219888 35.843486 0.000000 0.000000 0.000000 -2.809127 7.863100 -33.991459 1.413778 6.915944 1.424140 -22.828552 17.265467 19.381460 0.000000 0.000000 0.000000
-14.659743 80.454212 336.243158 4.778036 -9.599317 34.658819 0.025385 -0.065528 -34.033049 0.065618 -0.017838 0.258175 4.586495 -15.216236 -8.223289 0.000000 0.000000 0.000000 -2.911695 15.210817 -0.880476 -19.473073 42.046670 6.789042 35.356956 -17.683680 0.008109 -15.084642 -3.431072 8.298941 0.000000 0.000000 0.000000 0.000000 0.000000 0.000000 -25.873032 8.174344 6.448469 -22.121959 -7.353538 2.904548 -14.737362 25.002928 -13.092187 -8.819363 -6.771947 13.488228 0.000000 0.000000 0.000000 0.000000 0.000000 0.000000 12.497773 11.910376 -35.985686 49.275979 6.713950 23.366133 -118.499709 7.999693 36.675504 0.000000 0.000000 0.000000 -3.336344 7.464957 -34.651891 1.537327 7.600456 1.544982 -18.177319 13.262726 15.090226 0.000000 0.000000 0.000000
-14.561349 80.447751 336.004478 4.806173 -9.495989 35.077030 0.022006 -0.019637 -34.452890 0.046491 0.012604 0.256116 3.583621 -15.715297 -8.209838 0.000000 0.000000 0.000000 -3.024299 15.317052 -0.911450 -19.919965 41.633324 6.916277 34.732120 -18.160373 0.018337 -13.757271 -4.328841 8.560518 0.000000 0.000000 0.000000 0.000000 0.000000 0.000000 -29.180871 7.080519 7.073666 -17.139655 -6.076907 2.904068 -18.070421 29.353747 -9.465309 -3.882587 -6.774733 13.660848 0.000000 0.000000 0.000000 0.000000 0.000000 0.000000 12.179779 10.628091 -35.936303 48.743849 7.076716 21.469035 -118.816068 6.935549 36.639695 0.000000 0.000000 0.000000 -3.705786 7.068750 -35.132136 1.585024 8.009788 1.612876 -15.424450 10.459906 12.581635 0.000000 0.000000 0.000000
-14.503895 80.423270 335.881394 4.768063 -9.401428 35.423977 0.043697 0.054794 -34.811078 0.031358 0.067662 0.249926 2.841661 -16.306277 -8.224089 0.000000 0.000000 0.000000 -2.819460 16.054034 -1.055903 -22.820029 40.638191 7.518241 36.996824 -18.598578 1.495215 -8.759138 -4.327066 8.631170 0.000000 0.000000 0.000000 0.000000 0.000000 0.000000 -31.775792 6.003846 7.426248 -13.516235 -4.448949 3.284673 -20.690287 33.589521 -5.988668 0.756086 -11.509165 10.867432 0.000000 0.000000 0.000000 0.000000 0.000000 0.000000 11.944340 9.306722 -35.822524 48.228885 7.481998 19.395051 -119.097142 5.788124 36.374388 0.000000 0.000000 0.000000 -3.954671 6.791391 -35.524884 1.681437 8.223762 1.636672 -14.703132 9.434416 11.914834 0.000000 0.000000 0.000000
